<svg width="4185" height="602" viewBox="0 0 4185 602" fill="black" xmlns="http://www.w3.org/2000/svg">
<path d="M0.480001 592.622L9.22 574.268C11.5507 574.851 13.8813 575.433 16.212 576.016C18.5427 576.016 20.8733 576.016 23.204 576.016C39.5187 576.016 55.542 572.811 71.274 566.402C90.502 558.245 101.864 546.883 105.36 532.316C111.187 506.096 114.683 455.113 115.848 379.366V259.628C115.848 126.197 109.439 52.1986 96.62 37.632C88.4627 30.64 75.3527 25.6873 57.29 22.774C53.794 22.1913 50.298 21.9 46.802 21.9C43.306 21.3173 40.1013 21.026 37.188 21.026C34.8573 21.026 32.2353 21.3173 29.322 21.9C26.9913 21.9 24.6607 22.1913 22.33 22.774L31.07 5.29397C71.274 9.37262 110.313 11.9946 148.186 13.16C195.382 11.9946 243.452 11.4119 292.396 11.4119C341.34 10.8293 391.449 10.2466 442.724 9.66397C448.551 10.2466 451.464 14.3253 451.464 21.9C451.464 28.3093 449.425 37.632 445.346 49.868C443.015 57.4426 440.976 63.852 439.228 69.096C438.063 73.7573 437.48 77.2533 437.48 79.584L427.866 131.15L410.386 126.78C414.465 116.875 417.378 108.135 419.126 100.56C421.457 92.9853 422.913 86.2847 423.496 80.458V77.836C423.496 59.1906 408.055 48.12 377.174 44.624C366.103 42.876 344.253 42.002 311.624 42.002H285.404C261.515 42.5846 241.704 43.1673 225.972 43.75C210.24 44.3327 198.878 45.2066 191.886 46.372C183.146 77.836 178.776 153.291 178.776 272.738L368.434 270.99C374.261 270.99 377.174 274.486 377.174 281.478C377.174 285.557 375.426 293.714 371.93 305.95C370.765 311.777 369.599 317.312 368.434 322.556C367.851 327.217 367.851 331.005 368.434 333.918V354.894L351.828 352.272C354.741 344.697 356.198 338.871 356.198 334.792C356.198 314.399 336.97 303.037 298.514 300.706C263.554 298.958 234.712 298.084 211.988 298.084C205.579 298.084 199.461 298.375 193.634 298.958C188.39 298.958 183.437 298.958 178.776 298.958L179.65 341.784L180.524 437.05C181.107 455.695 181.981 472.884 183.146 488.616C184.894 504.348 186.933 518.915 189.264 532.316C191.595 547.465 205.287 559.119 230.342 567.276C244.326 571.355 258.893 573.394 274.042 573.394C276.955 573.394 279.577 573.394 281.908 573.394C284.239 573.394 286.569 573.103 288.9 572.52L278.412 592.622C259.184 586.795 218.98 583.882 157.8 583.882H144.69C133.037 583.882 114.974 584.756 90.502 586.504C66.6127 587.669 36.6053 589.709 0.480001 592.622ZM635.653 599.614C597.779 599.614 566.024 590.583 540.387 572.52C514.749 554.457 495.23 529.985 481.829 499.104C469.01 467.64 462.601 432.971 462.601 395.098C462.601 326.926 479.498 275.651 513.293 241.274C516.206 238.943 523.198 233.117 534.269 223.794C545.339 213.889 560.78 200.487 580.591 183.59C597.488 169.606 621.086 162.614 651.385 162.614C692.171 162.614 725.966 172.228 752.769 191.456C780.154 210.101 800.547 235.739 813.949 268.368C827.933 300.415 834.925 336.831 834.925 377.618C834.925 408.499 830.846 436.176 822.689 460.648C814.531 485.12 802.878 504.639 787.729 519.206C781.902 525.033 773.453 532.607 762.383 541.93C751.312 550.67 738.785 560.867 724.801 572.52C706.155 590.583 676.439 599.614 635.653 599.614ZM661.873 560.284C688.093 560.284 710.234 553.001 728.297 538.434C746.359 523.285 759.761 503.765 768.501 479.876C777.823 455.987 782.485 431.223 782.485 405.586C782.485 371.791 775.784 339.745 762.383 309.446C748.981 279.147 730.919 254.384 708.195 235.156C685.471 215.345 659.833 205.44 631.283 205.44C605.645 205.44 584.669 213.306 568.355 229.038C552.04 244.187 539.804 263.998 531.647 288.47C524.072 312.359 520.285 337.705 520.285 364.508C520.285 397.137 525.529 428.601 536.017 458.9C547.087 488.616 563.111 513.088 584.087 532.316C605.645 550.961 631.574 560.284 661.873 560.284ZM872.466 592.622L881.206 573.394C882.954 573.977 886.45 574.268 891.694 574.268C906.843 574.268 921.118 571.355 934.52 565.528C950.834 558.536 961.031 549.505 965.11 538.434C968.606 530.277 970.936 519.206 972.102 505.222C973.85 491.238 975.015 474.632 975.598 455.404L976.472 329.548V319.06C976.472 250.888 970.645 210.393 958.992 197.574C950.834 191.165 936.559 187.086 916.166 185.338C912.67 185.338 909.465 185.338 906.552 185.338C903.638 184.755 900.725 184.464 897.812 184.464C887.906 184.464 878.875 185.338 870.718 187.086L878.584 170.48C883.245 171.063 894.024 171.645 910.922 172.228C928.402 172.811 952 173.685 981.716 174.85C984.629 174.85 988.125 174.85 992.204 174.85C996.865 174.267 1001.53 173.685 1006.19 173.102C1011.43 171.937 1015.51 171.354 1018.42 171.354C1021.92 171.354 1024.25 171.354 1025.42 171.354C1032.99 171.354 1036.78 174.559 1036.78 180.968C1036.78 183.299 1036.49 185.047 1035.9 186.212L1029.79 246.518C1032.12 243.605 1037.36 238.361 1045.52 230.786C1053.68 223.211 1065.04 213.306 1079.6 201.07C1104.66 180.677 1132.63 170.48 1163.51 170.48C1167.59 170.48 1171.67 170.48 1175.74 170.48C1179.82 170.48 1183.9 171.063 1187.98 172.228C1231.68 179.803 1252.95 204.857 1251.78 247.392C1251.78 261.376 1237.8 277.982 1209.83 297.21C1209.25 297.21 1208.66 297.501 1208.08 298.084C1208.08 298.084 1207.79 298.084 1207.21 298.084C1205.46 298.084 1203.13 290.218 1200.22 274.486C1192.06 228.455 1171.67 205.44 1139.04 205.44C1136.71 205.44 1134.37 205.731 1132.04 206.314C1129.71 206.314 1127.09 206.605 1124.18 207.188C1108.45 208.936 1089.8 219.424 1068.24 238.652C1042.6 259.045 1029.79 278.565 1029.79 297.21C1029.79 304.202 1029.49 307.407 1028.91 306.824V344.406C1028.91 356.642 1029.79 392.476 1031.53 451.908C1032.12 462.979 1032.7 475.797 1033.28 490.364C1034.45 504.348 1036.2 520.663 1038.53 539.308C1043.77 563.197 1070.86 575.142 1119.81 575.142C1125.05 575.142 1129.71 575.142 1133.79 575.142C1138.45 574.559 1142.24 573.977 1145.15 573.394L1135.54 591.748C1122.14 590 1105.24 588.835 1084.85 588.252C1065.04 587.669 1042.02 587.378 1015.8 587.378H1003.57C945.882 587.378 902.182 589.126 872.466 592.622ZM1496.55 593.496C1473.24 586.504 1444.98 583.008 1411.77 583.008H1399.54C1393.13 583.008 1378.85 583.882 1356.71 585.63C1335.15 587.378 1306.02 589.709 1269.31 592.622L1278.05 575.142C1279.8 575.725 1281.84 576.016 1284.17 576.016C1286.5 576.016 1288.83 576.016 1291.16 576.016C1309.8 576.016 1325.83 573.103 1339.23 567.276C1358.46 559.701 1369.82 548.631 1373.32 534.064C1378.56 513.671 1381.18 450.451 1381.18 344.406C1381.18 259.919 1375.35 210.975 1363.7 197.574C1355.54 191.165 1341.27 187.086 1320.88 185.338C1317.38 185.338 1314.17 185.338 1311.26 185.338C1308.35 184.755 1305.43 184.464 1302.52 184.464C1292.62 184.464 1283.58 185.338 1275.43 187.086L1283.29 170.48C1287.95 171.063 1298.73 171.645 1315.63 172.228C1333.11 172.811 1356.71 173.685 1386.43 174.85C1389.34 174.85 1392.83 174.85 1396.91 174.85C1401.57 174.267 1406.24 173.685 1410.9 173.102C1416.14 171.937 1420.22 171.354 1423.13 171.354C1426.63 171.354 1428.96 171.354 1430.13 171.354C1437.7 171.354 1441.49 174.559 1441.49 180.968C1441.49 183.299 1441.2 185.047 1440.61 186.212C1440.03 192.039 1439.16 198.739 1437.99 206.314C1436.83 213.306 1435.66 221.172 1434.5 229.912C1442.65 225.251 1451.1 220.007 1459.84 214.18C1468.58 208.353 1477.61 201.653 1486.94 194.078C1514.32 173.102 1544.33 162.614 1576.96 162.614C1585.7 162.614 1594.44 163.488 1603.18 165.236C1646.29 172.228 1669.02 194.078 1671.35 230.786C1681.84 224.377 1691.45 218.259 1700.19 212.432C1709.51 206.023 1717.67 199.905 1724.66 194.078C1752.05 173.102 1782.06 162.614 1814.69 162.614C1823.43 162.614 1832.17 163.488 1840.91 165.236C1888.1 172.811 1911.7 197.283 1911.7 238.652V344.406L1912.57 451.908C1912.57 472.301 1912.86 490.073 1913.45 505.222C1914.61 519.789 1916.36 531.733 1918.69 541.056C1925.1 563.78 1953.36 575.142 2003.47 575.142C2008.71 575.142 2013.08 575.142 2016.58 575.142C2020.08 574.559 2022.7 573.977 2024.45 573.394L2016.58 591.748C1997.93 589.417 1979 587.961 1959.77 587.378C1941.12 586.213 1922.19 585.63 1902.96 585.63C1882.57 585.63 1861.88 586.213 1840.91 587.378C1819.93 588.543 1798.66 590.291 1777.1 592.622L1785.84 574.268H1791.96C1803.61 574.268 1814.1 571.063 1823.43 564.654C1833.91 557.662 1840.91 549.505 1844.4 540.182C1849.65 525.033 1852.27 496.773 1852.27 455.404L1853.14 329.548C1854.31 242.148 1831.58 198.448 1784.97 198.448C1782.64 198.448 1780.02 198.448 1777.1 198.448C1774.77 198.448 1772.15 198.739 1769.24 199.322C1757.58 201.07 1742.14 208.353 1722.92 221.172C1712.43 227.581 1702.81 234.282 1694.07 241.274C1685.33 248.266 1677.76 255.841 1671.35 263.998C1671.35 269.825 1671.35 277.108 1671.35 285.848C1671.35 294.588 1671.64 304.785 1672.22 316.438V348.776C1672.22 379.075 1673.1 413.452 1674.85 451.908C1674.85 462.979 1675.43 476.089 1676.59 491.238C1677.76 505.805 1679.22 522.411 1680.96 541.056C1682.71 550.961 1689.41 559.119 1701.07 565.528C1710.39 571.355 1720.58 574.268 1731.66 574.268C1732.82 574.268 1733.99 574.268 1735.15 574.268C1736.9 573.685 1738.36 573.394 1739.52 573.394L1732.53 591.748C1715.05 589.417 1697.86 587.961 1680.96 587.378C1664.65 586.213 1648.33 585.63 1632.02 585.63C1604.05 585.63 1576.37 587.378 1548.99 590.874L1556.86 573.394C1558.02 573.977 1559.77 574.268 1562.1 574.268C1571.42 574.268 1580.45 570.772 1589.19 563.78C1599.1 557.371 1605.22 549.505 1607.55 540.182C1612.79 525.033 1615.41 499.978 1615.41 465.018V329.548C1616.58 242.148 1593.85 198.448 1547.24 198.448C1544.91 198.448 1542.29 198.448 1539.38 198.448C1537.04 198.448 1534.42 198.739 1531.51 199.322C1518.69 201.07 1502.38 207.771 1482.57 219.424C1461.01 232.243 1444.98 246.518 1434.5 262.25V349.65C1434.5 397.429 1435.08 437.05 1436.24 468.514C1437.41 499.395 1439.16 521.828 1441.49 535.812C1445.57 559.701 1468 571.646 1508.79 571.646L1496.55 593.496ZM2577.02 593.496C2524 593.496 2482.63 581.26 2452.91 556.788C2441.84 548.048 2426.69 531.151 2407.46 506.096L2400.47 512.214C2389.98 523.285 2377.75 533.481 2363.76 542.804C2350.36 551.544 2335.21 559.993 2318.31 568.15C2283.35 583.299 2249.27 590.874 2216.06 590.874C2170.61 590.874 2132.74 578.347 2102.44 553.292C2071.56 527.655 2056.11 496.191 2056.11 458.9C2056.11 419.279 2074.18 379.657 2110.3 340.036C2112.63 337.123 2114.96 334.501 2117.29 332.17C2120.21 329.257 2122.83 326.635 2125.16 324.304L2168.86 281.478C2173.52 276.817 2181.39 269.242 2192.46 258.754C2204.11 248.266 2219.55 234.865 2238.78 218.55L2230.04 202.818C2222.47 191.747 2216.06 181.259 2210.81 171.354C2205.57 161.449 2201.2 152.126 2197.7 143.386L2194.21 135.52C2188.96 126.78 2186.34 119.205 2186.34 112.796C2186.34 108.135 2187.51 104.347 2189.84 101.434C2191 88.6153 2195.08 79.0013 2202.07 72.592L2244.9 29.766C2246.06 28.6007 2247.23 27.4353 2248.39 26.27C2250.14 24.522 2251.89 23.0653 2253.64 21.9C2273.45 7.33332 2295.01 0.0499896 2318.31 0.0499896C2337.54 0.0499896 2352.98 5.00264 2364.64 14.908C2378.04 25.9786 2384.74 40.5453 2384.74 58.608C2384.74 62.6866 2384.45 67.0566 2383.86 71.718C2383.28 76.3793 2382.12 81.0406 2380.37 85.702C2376.29 99.1033 2364.93 115.127 2346.28 133.772L2303.46 177.472C2299.38 180.968 2295.3 184.755 2291.22 188.834C2287.72 192.33 2283.94 196.117 2279.86 200.196C2355.61 316.147 2412.12 396.263 2449.41 440.546C2475.63 398.594 2489.04 351.689 2489.62 299.832C2490.2 298.667 2490.49 297.21 2490.49 295.462C2490.49 293.714 2490.49 292.549 2490.49 291.966C2490.49 284.974 2489.91 279.147 2488.74 274.486C2468.35 273.321 2447.67 272.447 2426.69 271.864C2406.3 270.699 2385.61 270.116 2364.64 270.116L2385.61 251.762L2618.97 252.636C2619.55 252.636 2619.84 252.927 2619.84 253.51C2619.84 256.423 2612.85 262.25 2598.87 270.99C2584.88 280.895 2574.69 285.265 2568.28 284.1C2557.21 282.352 2544.68 280.604 2530.7 278.856C2527.78 349.941 2505.35 408.791 2463.4 455.404C2470.39 462.979 2478.26 471.719 2487 481.624C2495.74 490.947 2505.64 501.435 2516.71 513.088C2562.74 555.04 2604.99 575.433 2643.44 574.268L2635.58 590C2624.51 590.583 2614.02 591.165 2604.11 591.748C2594.21 592.913 2585.18 593.496 2577.02 593.496ZM2271.99 188.834C2302.87 160.283 2321.23 140.473 2327.05 129.402C2333.46 118.914 2336.67 106.969 2336.67 93.568C2336.67 79.584 2332.88 68.8047 2325.31 61.23C2311.32 47.246 2294.72 40.254 2275.49 40.254C2245.19 40.254 2230.04 55.6947 2230.04 86.576C2230.04 111.048 2239.36 137.559 2258.01 166.11L2271.99 188.834ZM2270.24 541.93C2296.46 541.93 2324.43 535.229 2354.15 521.828C2369.3 515.419 2384.16 506.096 2398.72 493.86L2324.43 373.248C2317.44 362.177 2307.54 345.28 2294.72 322.556C2281.9 299.249 2266.17 270.116 2247.52 235.156L2189.84 293.714C2154.88 330.422 2137.4 370.335 2137.4 413.452C2137.4 448.995 2149.63 479.002 2174.1 503.474C2199.74 529.111 2231.79 541.93 2270.24 541.93ZM2660.89 592.622L2669.63 574.268C2671.96 574.851 2674.29 575.433 2676.62 576.016C2678.95 576.016 2681.28 576.016 2683.61 576.016C2699.93 576.016 2715.95 572.811 2731.68 566.402C2750.91 558.245 2762.27 546.883 2765.77 532.316C2771.59 506.096 2775.09 455.113 2776.26 379.366V259.628C2776.26 126.197 2769.85 52.1986 2757.03 37.632C2748.87 30.64 2735.76 25.6873 2717.7 22.774C2714.2 22.1913 2710.71 21.9 2707.21 21.9C2703.71 21.3173 2700.51 21.026 2697.6 21.026C2695.27 21.026 2692.64 21.3173 2689.73 21.9C2687.4 21.9 2685.07 22.1913 2682.74 22.774L2691.48 5.29397C2731.68 9.37262 2770.72 11.9946 2808.59 13.16C2855.79 11.9946 2903.86 11.4119 2952.8 11.4119C3001.75 10.8293 3051.86 10.2466 3103.13 9.66397C3108.96 10.2466 3111.87 14.3253 3111.87 21.9C3111.87 28.3093 3109.83 37.632 3105.75 49.868C3103.42 57.4426 3101.38 63.852 3099.64 69.096C3098.47 73.7573 3097.89 77.2533 3097.89 79.584L3088.27 131.15L3070.79 126.78C3074.87 116.875 3077.79 108.135 3079.53 100.56C3081.86 92.9853 3083.32 86.2847 3083.9 80.458V77.836C3083.9 59.1906 3068.46 48.12 3037.58 44.624C3026.51 42.876 3004.66 42.002 2972.03 42.002H2945.81C2921.92 42.5846 2902.11 43.1673 2886.38 43.75C2870.65 44.3327 2859.29 45.2066 2852.29 46.372C2843.55 77.836 2839.18 153.291 2839.18 272.738L3028.84 270.99C3034.67 270.99 3037.58 274.486 3037.58 281.478C3037.58 285.557 3035.83 293.714 3032.34 305.95C3031.17 311.777 3030.01 317.312 3028.84 322.556C3028.26 327.217 3028.26 331.005 3028.84 333.918V354.894L3012.24 352.272C3015.15 344.697 3016.61 338.871 3016.61 334.792C3016.61 314.399 2997.38 303.037 2958.92 300.706C2923.96 298.958 2895.12 298.084 2872.4 298.084C2865.99 298.084 2859.87 298.375 2854.04 298.958C2848.8 298.958 2843.85 298.958 2839.18 298.958L2840.06 341.784L2840.93 437.05C2841.51 455.695 2842.39 472.884 2843.55 488.616C2845.3 504.348 2847.34 518.915 2849.67 532.316C2852 547.465 2865.7 559.119 2890.75 567.276C2904.73 571.355 2919.3 573.394 2934.45 573.394C2937.36 573.394 2939.99 573.394 2942.32 573.394C2944.65 573.394 2946.98 573.103 2949.31 572.52L2938.82 592.622C2919.59 586.795 2879.39 583.882 2818.21 583.882H2805.1C2793.44 583.882 2775.38 584.756 2750.91 586.504C2727.02 587.669 2697.01 589.709 2660.89 592.622ZM3320.42 601.362C3315.76 601.362 3310.81 601.071 3305.57 600.488C3300.9 600.488 3296.24 600.197 3291.58 599.614C3241.47 591.457 3216.42 566.693 3216.42 525.324V458.026L3215.54 415.2C3215.54 394.224 3215.25 374.996 3214.67 357.516C3214.67 340.036 3214.38 324.304 3213.8 310.32C3213.21 288.761 3210.59 259.628 3205.93 222.92C3200.69 200.196 3181.17 188.834 3147.37 188.834C3143.29 188.834 3139.21 189.125 3135.14 189.708C3131.06 189.708 3126.98 189.999 3122.9 190.582L3132.51 172.228C3152.91 174.559 3172.72 176.307 3191.95 177.472C3211.17 178.637 3230.11 179.22 3248.76 179.22C3282.55 179.22 3315.18 177.472 3346.64 173.976L3338.78 190.582L3332.66 189.708C3322.75 189.708 3312.56 193.204 3302.07 200.196C3291.58 206.023 3284.59 213.889 3281.09 223.794C3278.76 231.369 3276.72 241.565 3274.98 254.384C3273.23 266.62 3272.35 281.769 3272.35 299.832V308.572L3273.23 435.302C3273.23 522.119 3298.57 565.528 3349.27 565.528C3352.18 565.528 3354.8 565.528 3357.13 565.528C3360.04 565.528 3363.25 565.237 3366.75 564.654C3381.89 562.906 3400.83 556.205 3423.56 544.552C3448.61 531.151 3466.09 516.875 3476 501.726V414.326C3476 365.965 3475.41 326.343 3474.25 295.462C3473.08 264.581 3471.33 242.148 3469 228.164C3463.76 202.527 3441.33 189.708 3401.71 189.708L3411.32 175.724C3418.89 178.055 3448.61 180.094 3500.47 181.842C3506.88 181.259 3519.11 180.677 3537.18 180.094C3555.24 178.929 3578.84 177.181 3607.97 174.85L3601.85 189.708C3599.52 189.125 3597.19 188.834 3594.86 188.834C3593.11 188.251 3591.07 187.96 3588.74 187.96C3560.77 187.96 3543.58 201.361 3537.18 228.164C3531.93 247.975 3529.31 310.32 3529.31 415.2C3529.31 425.688 3529.6 437.341 3530.18 450.16C3531.35 462.396 3532.51 475.797 3533.68 490.364C3536.59 509.009 3539.21 524.159 3541.55 535.812C3544.46 547.465 3547.95 555.623 3552.03 560.284C3560.77 567.276 3575.05 571.063 3594.86 571.646C3597.77 572.229 3600.98 572.52 3604.47 572.52C3607.97 572.52 3610.88 572.52 3613.21 572.52C3623.7 572.52 3632.73 571.646 3640.31 569.898L3627.2 591.748C3609.13 591.748 3574.76 590.874 3524.07 589.126C3521.15 589.126 3517.36 589.126 3512.7 589.126C3508.62 589.126 3504.25 589.709 3499.59 590.874C3489.11 592.622 3482.7 593.496 3480.37 593.496C3472.79 593.496 3469 590.291 3469 583.882C3469 580.969 3469.29 578.929 3469.88 577.764C3471.04 571.937 3472.21 565.528 3473.37 558.536C3474.54 550.961 3475.41 542.804 3476 534.064C3464.92 540.473 3454.44 546.591 3444.53 552.418C3435.21 558.245 3426.47 564.071 3418.31 569.898C3389.76 590.874 3357.13 601.362 3320.42 601.362ZM3644.64 592.622L3652.51 575.142C3709.03 575.142 3740.2 562.032 3746.03 535.812C3748.94 525.907 3750.98 504.931 3752.15 472.884C3753.89 440.837 3754.77 398.011 3754.77 344.406C3754.77 259.337 3748.65 210.393 3736.41 197.574C3728.84 191.165 3714.56 187.086 3693.59 185.338C3690.67 185.338 3687.47 185.338 3683.97 185.338C3681.06 184.755 3678.15 184.464 3675.23 184.464C3664.75 184.464 3656.01 185.338 3649.01 187.086L3656.88 170.48C3661.54 171.063 3672.32 171.645 3689.22 172.228C3706.7 172.811 3730 173.685 3759.14 174.85C3762.63 174.85 3766.42 174.85 3770.5 174.85C3774.58 174.267 3779.24 173.685 3784.48 173.102C3789.14 171.937 3793.22 171.354 3796.72 171.354C3800.22 171.354 3802.55 171.354 3803.71 171.354C3810.7 171.354 3814.2 174.559 3814.2 180.968V186.212C3813.03 192.039 3811.87 198.739 3810.7 206.314C3810.12 213.306 3809.25 221.172 3808.08 229.912C3819.73 223.503 3830.22 217.385 3839.55 211.558C3849.45 205.731 3858.19 199.905 3865.77 194.078C3894.9 173.102 3927.53 162.614 3963.65 162.614C3973.56 162.614 3983.17 163.488 3992.5 165.236C4042.02 172.811 4066.79 197.574 4066.79 239.526C4066.79 248.849 4066.79 259.045 4066.79 270.116C4066.79 281.187 4067.08 293.131 4067.66 305.95L4068.53 348.776C4069.12 363.925 4069.41 380.24 4069.41 397.72C4069.99 414.617 4070.57 432.68 4071.16 451.908C4071.16 462.979 4071.74 475.797 4072.9 490.364C4074.07 504.931 4075.23 520.08 4076.4 535.812C4077.56 549.796 4085.72 559.701 4100.87 565.528C4116.6 571.355 4137.29 574.268 4162.93 574.268C4168.17 574.268 4172.54 574.268 4176.04 574.268C4179.53 574.268 4182.44 573.977 4184.78 573.394L4175.16 591.748C4154.19 589.417 4133.79 587.669 4113.98 586.504C4094.17 585.339 4074.94 584.756 4056.3 584.756C4023.09 584.756 3982.88 587.378 3935.69 592.622L3945.3 573.394C3946.46 573.977 3949.67 574.268 3954.91 574.268C3963.07 574.268 3972.1 571.063 3982.01 564.654C3991.91 557.662 3998.61 549.505 4002.11 540.182C4007.94 526.198 4010.85 501.143 4010.85 465.018V329.548C4010.85 242.148 3985.5 198.448 3934.81 198.448C3932.48 198.448 3929.57 198.448 3926.07 198.448C3923.16 198.448 3920.24 198.739 3917.33 199.322C3909.17 199.905 3900.43 201.944 3891.11 205.44C3881.79 208.936 3871.59 213.597 3860.52 219.424C3847.7 225.833 3836.92 232.825 3828.18 240.4C3819.44 247.392 3812.45 254.675 3807.21 262.25V349.65C3807.21 446.373 3809.83 508.427 3815.07 535.812C3819.15 560.867 3841.58 573.394 3882.37 573.394L3873.63 591.748C3859.06 587.087 3828.77 584.173 3782.74 583.008C3778.07 583.008 3764.09 583.882 3740.78 585.63C3718.06 587.378 3686.01 589.709 3644.64 592.622Z" fill="white"/>
</svg>
